<?xml version="1.0" encoding="utf-8"?>
<!-- Generator: Adobe Illustrator 24.3.0, SVG Export Plug-In . SVG Version: 6.00 Build 0)  -->
<svg version="1.1" id="Layer_1" xmlns="http://www.w3.org/2000/svg" xmlns:xlink="http://www.w3.org/1999/xlink" x="0px" y="0px"
	 viewBox="0 0 1024 1024" style="enable-background:new 0 0 1024 1024;" xml:space="preserve">
<style type="text/css">
	.st0{fill:#2A547E;}
</style>
<path class="st0" d="M510.5,65.3C264,65.3,64.3,265,64.3,511.5c0,246.4,199.8,446.2,446.2,446.2c246.4,0,446.2-199.8,446.2-446.2
	C956.7,265.1,756.9,65.3,510.5,65.3L510.5,65.3z M798.8,420.8l-320.1,320c-6.5,6.6-17.2,6.6-23.7,0l-47.3-47.8
	c-6.5-6.6-17.2-17.3-23.7-23.9L274,553.5c-3.2-3.3-5-7.8-5-12.2c0-4.3,1.7-8.4,5-11.7l48.2-43.5c3.3-3.3,7.6-5,11.9-4.9
	c4.4,0,8.6,1.8,11.7,4.9L455,597.5c6.5,6.6,17.1,6.6,23.7,0l249.1-248.4c6.5-6.5,17.1-6.5,23.6,0l47.3,47.8
	C805.3,403.4,805.3,414.2,798.8,420.8z"/>
</svg>
